# xmcd
#
# Track frame offsets: 
#        150
#        15797
#        34726
#        47964
#        63099
#        80363
#        95969
#        116800
#        149733
#        167516
#        182864
#        200316
#        219043
#        237244
#        260261
#        287371
#
# Disc length: 4244 seconds
#
# Revision: 1
# Processed by: cddbd v1.5.2PL0 Copyright (c) Steve Scherf et al.
# Submitted via: ExactAudioCopy v0.99pb4
#
DISCID=d9109210
DTITLE=Various Artist - Millennium - The Finest Collection (Ghazals vol 3)
DYEAR=1999
DGENRE=Ghazals
TTITLE0=Talat Mahmood, Mirza Ghalib(Traditional) - Koi Din Gar Zindaga
TTITLE0=ni Aur Hai (1961)
TTITLE1=Asha Bhosle, Jaidev, Mirza Ghalib(Traditional) - Kabhi Neki Bh
TTITLE1=i Uske Jee Mein (1971)
TTITLE2=Talat Mahmood, Khaiyyam, Khawar Zaman - Aa Gaeen Phirse Bahare
TTITLE2=n (1963)
TTITLE3=Mohd Rafi, Khaiyyam, Mirza Ghalib(Traditional) - Dard Minnat K
TTITLE3=ashe (1961)
TTITLE4=Asha Bhosle, Jaidev, Mirza Ghalib(Traditional) - Shauq Har Ran
TTITLE4=g Raqibe (1971)
TTITLE5=Talat Mahmood, Talat Mahmood, Faiz Ahmed Faiz - Dono Jahan Ter
TTITLE5=i Mohabbat Mein Haar Ke (1961)
TTITLE6=Mohd Rafi, Khaiyyam, Mirza Ghalib(Traditional) - Bazeecha-E-At
TTITLE6=fak (1968)
TTITLE7=Mukesh, Khaiyyam, Jan Nisar Akhtar - Ashaar Mere Yun To (1972)
TTITLE8=Lata Mangeshkar, Hridaynath Mangeshkar, Mirza Ghalib(Tradition
TTITLE8=al) - Yeh Hum Jo Hijr Mein Deewar-O-Dar Ko (1969)
TTITLE9=Talat Mahmood, Nasir Quadri, Shakeel Badayuni - Gham-E-Aashiqu
TTITLE9=i Se Kah Do (1963)
TTITLE10=Manna Dey, Yunus Malik, Zameer Kazmi - Shaam Ho Jaam Ho Suboo
TTITLE10=Bhi Ho (1982)
TTITLE11=Mohd Rafi, Taj Ahmed Khan, Shameem Jaipuri - Kitni Raahat Hai
TTITLE11=Dil Toot Jane Ke Baad (1976)
TTITLE12=Sudha Malhotra, Jagjit Singh, Musaffi(Traditional) - Khwab Th
TTITLE12=a Ya Khayal Tha (1980)
TTITLE13=Asha Bhosle, R D Burman, Gulzar - Umeed Hogi Koi (1987)
TTITLE14=Lata Mangeshkar, Jagjit Singh, Mazaffar Warsi - Meri Tasveer 
TTITLE14=Mein Rang Aur Kisi Ka To Nahin (1991)
TTITLE15=Lata Mangeshkar, Jagjit Singh, Nazeer Baqri - Dhuan Banake Fi
TTITLE15=za Mein Uda Diya Mujhko (1991)
EXTD=
EXTT0=
EXTT1=
EXTT2=
EXTT3=
EXTT4=
EXTT5=
EXTT6=
EXTT7=
EXTT8=
EXTT9=
EXTT10=
EXTT11=
EXTT12=
EXTT13=
EXTT14=
EXTT15=
PLAYORDER=
